<?xml version="1.0" encoding="UTF-8" standalone="no"?>
<svg
   viewBox="0 0 32.000001 31.999999"
   class="prefix__logo"
   version="1.1"
   id="svg2"
   sodipodi:docname="holodex.svg"
   width="32"
   height="32"
   inkscape:version="1.3.2 (091e20e, 2023-11-25, custom)"
   xmlns:inkscape="http://www.inkscape.org/namespaces/inkscape"
   xmlns:sodipodi="http://sodipodi.sourceforge.net/DTD/sodipodi-0.dtd"
   xmlns="http://www.w3.org/2000/svg"
   xmlns:svg="http://www.w3.org/2000/svg">
  <defs
     id="defs2" />
  <sodipodi:namedview
     id="namedview2"
     pagecolor="#505050"
     bordercolor="#eeeeee"
     borderopacity="1"
     inkscape:showpageshadow="0"
     inkscape:pageopacity="0"
     inkscape:pagecheckerboard="0"
     inkscape:deskcolor="#505050"
     inkscape:zoom="18.480219"
     inkscape:cx="6.4663736"
     inkscape:cy="16.477078"
     inkscape:window-width="2560"
     inkscape:window-height="1417"
     inkscape:window-x="-8"
     inkscape:window-y="-8"
     inkscape:window-maximized="1"
     inkscape:current-layer="svg2" />
  <g
     id="g2"
     transform="matrix(0.6461553,0,0,0.68465591,-0.00193845,0.01602314)">
    <path
       d="m 47.41,19.69 a 4.233,4.233 0 0 1 0,7.332 L 14.283,46.148 A 4.233,4.233 0 0 1 7.933,42.482 V 4.23 a 4.233,4.233 0 0 1 6.35,-3.666"
       fill="#f06292"
       id="path1" />
    <path
       d="m 39.48,19.67 a 4.233,4.233 0 0 1 0,7.332 L 6.353,46.128 A 4.233,4.233 0 0 1 0.003,42.462 V 4.21 a 4.233,4.233 0 0 1 6.35,-3.666"
       fill="#64b5f6"
       id="path2" />
  </g>
</svg>
